<svg version="1.1" xmlns="http://www.w3.org/2000/svg" xmlns:xlink="http://www.w3.org/1999/xlink" width="32px" height="32px" viewBox="0,0,256,256"><g fill="#717171" fill-rule="nonzero" stroke="none" stroke-width="1" stroke-linecap="butt" stroke-linejoin="miter" stroke-miterlimit="10" stroke-dasharray="" stroke-dashoffset="0" font-family="none" font-weight="none" font-size="none" text-anchor="none" style="mix-blend-mode: normal"><g transform="translate(0,-0.00706) scale(8,8)"><g id="surface1"><path d="M5.63281,2.71094l10.36719,10.36719l10.32422,-10.32422c0.36719,-0.39062 0.875,-0.61328 1.41016,-0.62109c1.17578,0 2.13281,0.95703 2.13281,2.13281c0.00781,0.53125 -0.19922,1.03906 -0.57813,1.41016l-10.42969,10.32422l10.42969,10.43359c0.35156,0.34375 0.55859,0.80859 0.57813,1.30078c0,1.17578 -0.95703,2.13281 -2.13281,2.13281c-0.55078,0.02344 -1.08594,-0.1875 -1.47266,-0.57813l-10.26172,-10.36719l-10.34766,10.34766c-0.36328,0.375 -0.86328,0.58984 -1.38672,0.59766c-1.17578,0 -2.13281,-0.95703 -2.13281,-2.13281c-0.00781,-0.53125 0.19922,-1.03906 0.57813,-1.41016l10.42969,-10.32422l-10.42969,-10.43359c-0.35156,-0.34375 -0.55859,-0.80859 -0.57813,-1.30078c0,-1.17578 0.95703,-2.13281 2.13281,-2.13281c0.51563,0.00781 1.00391,0.21484 1.36719,0.57813zM5.63281,2.71094"></path></g></g></g></svg>